<svg width="40" height="40" viewBox="0 0 40 40" fill="none" xmlns="http://www.w3.org/2000/svg">
<path d="M32.4434 8.22073C32.4434 8.22073 35.2183 7.13859 34.9862 9.76643C34.9098 10.8486 34.2162 14.6364 33.6762 18.7328L31.8263 30.8685C31.8263 30.8685 31.672 32.6463 30.2841 32.9556C28.897 33.2642 26.8156 31.8735 26.4299 31.5642C26.1213 31.3321 20.6486 27.8535 18.7214 26.1535C18.1814 25.6892 17.5643 24.7621 18.7986 23.6799L26.892 15.95C27.817 15.0228 28.742 12.8586 24.8878 15.4864L14.0951 22.8292C14.0951 22.8292 12.8615 23.6028 10.5494 22.9071L5.53806 21.3607C5.53806 21.3607 3.68809 20.2014 6.84876 19.0421C14.5579 15.4093 24.0399 11.6993 32.442 8.22073H32.4434Z" fill="black"/>
</svg>
