<svg width="40" height="40" viewBox="0 0 40 40" fill="none" xmlns="http://www.w3.org/2000/svg">
<g clip-path="url(#clip0_501_2389)">
<path d="M37.3479 26.1495C36.5205 25.1564 35.5803 24.2662 34.6711 23.4054C34.3478 23.0993 34.0135 22.7828 33.6912 22.468C32.7661 21.5635 32.7324 21.2236 33.4649 20.1962C33.9716 19.488 34.5089 18.7788 35.0286 18.093C35.4999 17.4707 35.9873 16.8272 36.4544 16.1817L36.5504 16.0489C37.4432 14.8135 38.3666 13.5361 38.858 11.9951C38.9856 11.5885 39.1196 10.9902 38.8132 10.4899C38.507 9.99008 37.9131 9.83758 37.493 9.76635C37.2851 9.7311 37.0788 9.72629 36.8873 9.72629L31.0402 9.7221L30.9919 9.72169C30.1078 9.72169 29.5121 10.1383 29.1707 10.9955C28.8447 11.8145 28.4867 12.6866 28.0781 13.5158C27.2651 15.1671 26.2325 17.069 24.7384 18.6552L24.6752 18.7226C24.4988 18.9123 24.2989 19.127 24.1527 19.127C24.1304 19.127 24.106 19.1227 24.0784 19.114C23.7689 18.9934 23.5611 18.2442 23.5706 17.8957C23.5707 17.8909 23.5708 17.8861 23.5708 17.8813L23.5667 11.1233C23.5667 11.0998 23.565 11.0766 23.562 11.0534C23.4132 9.95483 23.0838 9.27098 21.8389 9.02717C21.8058 9.02058 21.772 9.01733 21.7383 9.01733H15.6586C14.668 9.01733 14.1223 9.41993 13.6092 10.0225C13.4707 10.1836 13.1825 10.5189 13.3253 10.9257C13.4703 11.3385 13.9409 11.4268 14.0941 11.4555C14.8547 11.6002 15.2835 12.0655 15.4049 12.8784C15.6169 14.29 15.643 15.7968 15.4869 17.6202C15.4434 18.127 15.3573 18.5184 15.2155 18.8527C15.1826 18.9308 15.0657 19.1855 14.9466 19.1856C14.9087 19.1856 14.7992 19.1707 14.5997 19.0333C14.1281 18.7102 13.7831 18.2491 13.3808 17.6796C12.0122 15.7455 10.8637 13.6149 9.86895 11.1645C9.50004 10.2625 8.81106 9.75746 7.92806 9.74261C6.95782 9.72786 6.07816 9.72075 5.23919 9.72075C4.32251 9.72075 3.47266 9.72922 2.6428 9.74648C1.93238 9.75903 1.44098 9.97199 1.18242 10.3799C0.923439 10.7882 0.940279 11.3244 1.23252 11.9735C3.57193 17.1744 5.69304 20.9559 8.11026 24.2352C9.80399 26.5298 11.5028 28.1181 13.4561 29.2332C15.5139 30.4104 17.8201 30.9828 20.5061 30.9828C20.8106 30.9828 21.1254 30.9754 21.4429 30.9605C23.0036 30.8845 23.5827 30.3196 23.6559 28.7999C23.6907 28.0232 23.7757 27.2087 24.1575 26.5141C24.3984 26.0765 24.6231 26.0765 24.697 26.0765C24.8392 26.0765 25.0156 26.142 25.205 26.2647C25.5447 26.4864 25.836 26.7835 26.0748 27.043C26.2996 27.2895 26.5219 27.5385 26.7443 27.7877C27.2244 28.3254 27.7208 28.8814 28.2394 29.4086C29.3745 30.5635 30.625 31.0714 32.0612 30.9611H37.422C37.4334 30.9611 37.4449 30.9607 37.4563 30.96C37.9904 30.9248 38.4531 30.6284 38.7255 30.1471C39.0631 29.5508 39.0563 28.79 38.7073 28.1116C38.3114 27.3445 37.7979 26.6891 37.3479 26.1495Z" fill="black"/>
</g>
<defs>
<clipPath id="clip0_501_2389">
<rect width="38" height="38" fill="white" transform="translate(1 1)"/>
</clipPath>
</defs>
</svg>
